<?xml version="1.0" encoding="utf-8"?>
<!-- Generator: Adobe Illustrator 24.1.3, SVG Export Plug-In . SVG Version: 6.00 Build 0)  -->
<svg version="1.1" id="Layer_1" xmlns="http://www.w3.org/2000/svg" xmlns:xlink="http://www.w3.org/1999/xlink" x="0px" y="0px"
	 viewBox="0 0 128.7 74.9" style="enable-background:new 0 0 128.7 74.9;" xml:space="preserve">
<style type="text/css">
	.st0{fill:#415666;}
	.st1{fill:#DDE0E5;}
	.st2{fill:#E8EDF2;}
	.st3{fill:#394D5C;}
	.st4{fill:#364958;}
	.st5{fill:#283947;}
	.st6{fill:#3D5261;}
	.st7{fill:#FED16D;}
	.st8{fill:#E93C3C;}
	.st9{fill:#FF845A;}
	.st10{fill:#FFFFFF;}
</style>
<g>
	<g>
		<g>
			<g id="XMLID_43_">
				<polygon id="XMLID_345_" class="st0" points="128.7,74.9 101.7,50.9 94.4,40.3 85.2,31.9 77.8,31.6 74.6,31.3 73.1,33.6 
					71.5,33.4 67.9,33.3 64.7,34.3 63.5,33.9 63.5,33.9 63.5,33.9 60.2,39.9 60.8,45.3 62,44 55.3,74.9 				"/>
				<polygon id="XMLID_401_" class="st1" points="64.5,23.4 68.7,12.4 67.1,12.4 62.3,15.6 60.6,19.4 56.7,20.8 51.8,27.9 
					47.5,30.5 53.1,32.4 56.6,32.9 58.7,31.6 62.2,33.7 63.5,33.9 65,26.5 64.3,25.7 				"/>
				<polygon id="XMLID_358_" class="st2" points="76.3,22.1 74.8,17.6 71.9,16 68.7,12.4 64.5,23.4 64.3,25.7 65,26.5 63.5,33.9 
					64.7,34.3 67.9,33.3 71.5,33.4 73.1,33.6 74.7,33 79.1,33.4 85.2,31.9 79.6,23.7 				"/>
				<polygon id="XMLID_747_" class="st3" points="63.5,33.9 65.1,37.3 61.3,39.8 65.8,44.8 60.9,49.3 61.8,60.5 57.2,66 55.3,74.9 
					3.8,74.9 28.3,53.1 29.2,49.2 42.7,32.4 47.5,30.5 56.6,32.9 58.7,31.6 				"/>
				<polygon id="XMLID_775_" class="st4" points="106.3,54.5 94.1,69.4 96.1,70.4 				"/>
				<polygon id="XMLID_361_" class="st5" points="60.9,49.3 56,54.6 50.7,52.4 39.4,69.3 31.1,69.3 22.8,74.9 55.3,74.9 57.2,66 
					61.8,60.5 				"/>
				<polygon id="XMLID_721_" class="st6" points="61.8,60.5 68.9,68.1 82.2,63.2 96.1,70.4 106.3,54.5 107.9,53.7 128.7,74.9 
					55.3,74.9 57.2,66 				"/>
			</g>
			<polygon class="st4" points="28.3,53.1 20.9,54.5 14.2,64.3 10.4,65.2 0,74.9 8.4,74.9 17.7,74.9 18.3,68.7 25.6,61 			"/>
		</g>
		<g>
			
				<rect x="65.3" y="16.8" transform="matrix(0.4421 -0.8969 0.8969 0.4421 21.483 68.7523)" class="st7" width="1.3" height="0.6"/>
		</g>
		<g>
			<rect x="66.4" y="14.7" transform="matrix(0.442 -0.897 0.897 0.442 23.9571 68.5354)" class="st7" width="1.3" height="0.6"/>
		</g>
		<g>
			<polygon class="st8" points="65.3,20 64.5,19.4 65,18.5 65.5,18.8 65.3,19.3 65.7,19.5 			"/>
		</g>
		<g>
			<polygon class="st7" points="68.2,22.1 66.9,21.2 67.2,20.7 68.5,21.6 			"/>
		</g>
		<g>
			<polygon class="st7" points="67.6,26.4 67.2,25.9 68.4,24.8 68.8,25.3 			"/>
		</g>
		<g>
			<path class="st7" d="M73.2,31l-1.2-0.4l0.2-0.6l1.2,0.4L73.2,31z M70.7,30.2l-1.2-0.4l0.2-0.6l1.2,0.4L70.7,30.2z M68.3,29.4
				L67.1,29l0.2-0.6l1.2,0.4L68.3,29.4z"/>
		</g>
		<g>
			<path class="st7" d="M65.5,38.7l-0.4-0.5l1.2-0.8l0.4,0.5L65.5,38.7z M67.8,37.1l-0.4-0.5l1.2-0.8l0.4,0.5L67.8,37.1z M70.1,35.4
				l-0.4-0.5l1.2-0.8l0.4,0.5L70.1,35.4z M72.4,33.7l-0.4-0.5l1.2-0.8l0.4,0.5L72.4,33.7z"/>
		</g>
		<g>
			<path class="st7" d="M79.7,43.5l-1.5-0.3l0.1-0.6l1.5,0.3L79.7,43.5z M76.6,42.9l-1.5-0.3l0.1-0.6l1.5,0.3L76.6,42.9z M73.5,42.2
				L72,41.9l0.1-0.6l1.5,0.3L73.5,42.2z M70.4,41.5l-1.5-0.3l0.1-0.6l1.5,0.3L70.4,41.5z M67.3,40.9l-1.5-0.3l0.1-0.6l1.5,0.3
				L67.3,40.9z"/>
		</g>
		<g>
			<path class="st7" d="M62.2,57.3l-0.3-0.5l1.2-0.8l0.3,0.5L62.2,57.3z M64.6,55.7l-0.3-0.5l1.2-0.8l0.3,0.5L64.6,55.7z M67.1,54.1
				l-0.3-0.5l1.2-0.8l0.3,0.5L67.1,54.1z M69.5,52.5L69.1,52l1.2-0.8l0.3,0.5L69.5,52.5z M71.9,50.8l-0.3-0.5l1.2-0.8l0.3,0.5
				L71.9,50.8z M74.3,49.2L74,48.7l1.2-0.8l0.3,0.5L74.3,49.2z M76.7,47.6l-0.3-0.5l1.2-0.8l0.3,0.5L76.7,47.6z M79.2,46l-0.3-0.5
				l1.2-0.8l0.3,0.5L79.2,46z"/>
		</g>
		<g>
			<polygon class="st8" points="121.5,73.2 120.7,73.1 120.8,72.5 121.5,72.7 			"/>
		</g>
		<g>
			<path class="st9" d="M67.6,0.4L67.6,0.4l0,3.5v8.5h0.6V4.3L74.8,3l-6.9-2.1V0.4h0C68,0.4,68,0.4,68,0.3V0.2C68,0.1,68,0,67.9,0
				h-0.3c-0.1,0-0.2,0.1-0.2,0.2v0.1C67.4,0.4,67.5,0.4,67.6,0.4z"/>
			<g>
				<path class="st7" d="M119.2,72.9l-1.5-0.2l0.1-0.6l1.5,0.2L119.2,72.9z M116.3,72.5l-1.5-0.2l0.1-0.6l1.5,0.2L116.3,72.5z
					 M113.4,72l-1.5-0.2l0.1-0.6l1.5,0.2L113.4,72z M110.5,71.6l-1.5-0.2l0.1-0.6l1.5,0.2L110.5,71.6z M107.6,71.1l-1.5-0.2l0.1-0.6
					l1.5,0.2L107.6,71.1z M104.5,70.5l-1.2-0.9l0.3-0.5l1.2,0.9L104.5,70.5z M102.1,68.8l-1.2-0.9l0.3-0.5l1.2,0.9L102.1,68.8z
					 M99.7,67.1l-1.2-0.9l0.3-0.5l1.2,0.9L99.7,67.1z M97.3,65.4l-1.2-0.9l0.3-0.5l1.2,0.9L97.3,65.4z M94.9,63.7l-1.2-0.9l0.3-0.5
					l1.2,0.9L94.9,63.7z M92.5,62l-1.2-0.9l0.3-0.5l1.2,0.9L92.5,62z M90.1,60.2l-0.9-0.7l-0.2,0l0-0.6l0.4,0l1.1,0.8L90.1,60.2z
					 M87.5,59.5l-1.5-0.1l0-0.6l1.5,0.1L87.5,59.5z M84.6,59.4l-1.5-0.1l0-0.6l1.5,0.1L84.6,59.4z M81.6,59.3l-1.5-0.1l0-0.6
					l1.5,0.1L81.6,59.3z M78.7,59.2l-1.5-0.1l0-0.6l1.5,0.1L78.7,59.2z M75.7,59.1l-1.5-0.1l0-0.6l1.5,0.1L75.7,59.1z M72.8,59
					L71.3,59l0-0.6l1.5,0.1L72.8,59z M69.8,58.9l-1.5-0.1l0-0.6l1.5,0.1L69.8,58.9z M66.9,58.8l-1.5-0.1l0-0.6l1.5,0.1L66.9,58.8z
					 M63.9,58.7l-1.5-0.1l0-0.6l1.5,0.1L63.9,58.7z"/>
				<g>
					<g>
						<path class="st10" d="M66,19.1c0.3,0.4,0.1,1-0.3,1.2c-0.4,0.3-1,0.1-1.2-0.3c-0.3-0.4-0.1-1,0.3-1.2
							C65.2,18.5,65.7,18.6,66,19.1z"/>
						<path class="st9" d="M65.2,20.6c-0.4,0-0.8-0.2-1-0.6c-0.3-0.5-0.1-1.2,0.4-1.5c0.5-0.3,1.2-0.1,1.5,0.4l0,0
							c0.3,0.5,0.1,1.2-0.4,1.5C65.6,20.6,65.4,20.6,65.2,20.6z M65.2,18.8c-0.1,0-0.2,0-0.4,0.1c-0.2,0.1-0.3,0.2-0.3,0.4
							c0,0.2,0,0.4,0.1,0.5c0.2,0.3,0.6,0.5,1,0.3c0.3-0.2,0.5-0.6,0.3-1C65.7,18.9,65.5,18.8,65.2,18.8z"/>
					</g>
					<g>
						<path class="st10" d="M71.1,23.5c0,0.5-0.4,0.9-0.9,0.9c-0.5,0-0.9-0.4-0.9-0.9c0-0.5,0.4-0.9,0.9-0.9
							C70.7,22.5,71.1,23,71.1,23.5z"/>
						<path class="st9" d="M70.2,24.6c-0.6,0-1.1-0.5-1.1-1.1c0-0.6,0.5-1.1,1.1-1.1c0.6,0,1.1,0.5,1.1,1.1
							C71.3,24.1,70.8,24.6,70.2,24.6z M70.2,22.7c-0.4,0-0.7,0.3-0.7,0.7c0,0.4,0.3,0.7,0.7,0.7c0.4,0,0.7-0.3,0.7-0.7
							C70.9,23.1,70.5,22.7,70.2,22.7z"/>
					</g>
					<g>
						<path class="st10" d="M66.5,27.5c0,0.6-0.5,1-1,1s-1-0.5-1-1s0.5-1,1-1S66.5,26.9,66.5,27.5z"/>
						<path class="st9" d="M65.5,28.7c-0.7,0-1.2-0.6-1.2-1.2c0-0.7,0.6-1.2,1.2-1.2c0.7,0,1.2,0.6,1.2,1.2
							C66.7,28.2,66.2,28.7,65.5,28.7z M65.5,26.7c-0.5,0-0.8,0.4-0.8,0.8c0,0.5,0.4,0.8,0.8,0.8c0.5,0,0.8-0.4,0.8-0.8
							C66.3,27,66,26.7,65.5,26.7z"/>
					</g>
					<g>
						<path class="st10" d="M76.3,31.5c0,0.6-0.5,1.1-1.1,1.1c-0.6,0-1.1-0.5-1.1-1.1c0-0.6,0.5-1.1,1.1-1.1
							C75.8,30.4,76.3,30.9,76.3,31.5z"/>
						<path class="st9" d="M75.2,32.9c-0.7,0-1.3-0.6-1.3-1.3c0-0.7,0.6-1.3,1.3-1.3c0.7,0,1.3,0.6,1.3,1.3
							C76.5,32.3,75.9,32.9,75.2,32.9z M75.2,30.6c-0.5,0-0.9,0.4-0.9,0.9c0,0.5,0.4,0.9,0.9,0.9c0.5,0,0.9-0.4,0.9-0.9
							C76.1,31,75.7,30.6,75.2,30.6z"/>
					</g>
					<g>
						<path class="st10" d="M64.7,40.2c0,0.8-0.6,1.4-1.4,1.4c-0.8,0-1.4-0.6-1.4-1.4c0-0.8,0.6-1.4,1.4-1.4
							C64.1,38.7,64.7,39.4,64.7,40.2z"/>
						<path class="st9" d="M63.3,41.9c-0.9,0-1.7-0.8-1.7-1.7c0-0.9,0.8-1.7,1.7-1.7s1.7,0.8,1.7,1.7C65,41.1,64.2,41.9,63.3,41.9z
							 M63.3,39c-0.6,0-1.1,0.5-1.1,1.1s0.5,1.1,1.1,1.1c0.6,0,1.1-0.5,1.1-1.1S63.9,39,63.3,39z"/>
					</g>
					<g>
						<path class="st10" d="M83.6,43.5c0,0.8-0.6,1.4-1.4,1.4s-1.4-0.6-1.4-1.4c0-0.8,0.6-1.4,1.4-1.4S83.6,42.7,83.6,43.5z"/>
						<path class="st9" d="M82.2,45.2c-0.9,0-1.7-0.8-1.7-1.7c0-0.9,0.8-1.7,1.7-1.7s1.7,0.8,1.7,1.7C83.9,44.5,83.1,45.2,82.2,45.2
							z M82.2,42.4c-0.6,0-1.1,0.5-1.1,1.1c0,0.6,0.5,1.1,1.1,1.1s1.1-0.5,1.1-1.1C83.3,42.9,82.8,42.4,82.2,42.4z"/>
					</g>
					<g>
						<circle class="st10" cx="59.9" cy="58.3" r="1.4"/>
						<path class="st9" d="M59.9,60c-0.9,0-1.7-0.8-1.7-1.7c0-0.9,0.8-1.7,1.7-1.7c0.9,0,1.7,0.8,1.7,1.7C61.6,59.2,60.8,60,59.9,60
							z M59.9,57.2c-0.6,0-1.1,0.5-1.1,1.1s0.5,1.1,1.1,1.1c0.6,0,1.1-0.5,1.1-1.1S60.5,57.2,59.9,57.2z"/>
					</g>
					<g>
						<circle class="st10" cx="89.8" cy="59.6" r="1.4"/>
						<path class="st9" d="M89.8,61.3c-0.9,0-1.7-0.8-1.7-1.7c0-0.9,0.8-1.7,1.7-1.7c0.9,0,1.7,0.8,1.7,1.7
							C91.5,60.5,90.8,61.3,89.8,61.3z M89.8,58.4c-0.6,0-1.1,0.5-1.1,1.1c0,0.6,0.5,1.1,1.1,1.1c0.6,0,1.1-0.5,1.1-1.1
							C90.9,58.9,90.5,58.4,89.8,58.4z"/>
					</g>
					<g>
						<circle class="st10" cx="104.2" cy="69.8" r="1.4"/>
						<path class="st9" d="M104.2,71.5c-0.9,0-1.7-0.8-1.7-1.7c0-0.9,0.8-1.7,1.7-1.7c0.9,0,1.7,0.8,1.7,1.7
							C105.9,70.7,105.2,71.5,104.2,71.5z M104.2,68.6c-0.6,0-1.1,0.5-1.1,1.1c0,0.6,0.5,1.1,1.1,1.1c0.6,0,1.1-0.5,1.1-1.1
							C105.3,69.1,104.8,68.6,104.2,68.6z"/>
					</g>
					<g>
						<circle class="st10" cx="121.6" cy="72.9" r="1.4"/>
						<path class="st9" d="M121.6,74.7c-0.9,0-1.7-0.8-1.7-1.7c0-0.9,0.8-1.7,1.7-1.7c0.9,0,1.7,0.8,1.7,1.7
							C123.3,73.9,122.5,74.7,121.6,74.7z M121.6,71.8c-0.6,0-1.1,0.5-1.1,1.1c0,0.6,0.5,1.1,1.1,1.1c0.6,0,1.1-0.5,1.1-1.1
							C122.7,72.3,122.2,71.8,121.6,71.8z"/>
					</g>
					<g>
						<path class="st10" d="M69,12.7c0,0.5-0.4,0.9-0.9,0.9c-0.5,0-0.9-0.4-0.9-0.9c0-0.5,0.4-0.9,0.9-0.9
							C68.6,11.8,69,12.2,69,12.7z"/>
						<path class="st9" d="M68.1,13.8c-0.6,0-1.1-0.5-1.1-1.1c0-0.6,0.5-1.1,1.1-1.1c0.6,0,1.1,0.5,1.1,1.1
							C69.2,13.3,68.7,13.8,68.1,13.8z M68.1,12c-0.4,0-0.7,0.3-0.7,0.7c0,0.4,0.3,0.7,0.7,0.7c0.4,0,0.7-0.3,0.7-0.7
							C68.8,12.3,68.4,12,68.1,12z"/>
					</g>
				</g>
			</g>
		</g>
	</g>
</g>
</svg>
